<svg 
 xmlns="http://www.w3.org/2000/svg"
 xmlns:xlink="http://www.w3.org/1999/xlink"
 width="35px" height="8px">
<path fill-rule="evenodd"  fill="rgb(42, 42, 42)"
 d="M0.727,7.618 L33.636,7.618 C34.037,7.618 34.361,7.307 34.361,6.924 C34.361,6.541 34.037,6.231 33.636,6.231 L3.209,6.231 L10.205,1.957 L10.205,5.121 C10.205,5.504 10.530,5.814 10.931,5.814 C11.332,5.814 11.656,5.504 11.656,5.121 L11.656,0.691 C11.656,0.437 11.512,0.204 11.279,0.082 C11.170,0.026 11.050,-0.003 10.931,-0.003 C10.795,-0.003 10.659,0.034 10.540,0.106 L0.337,6.339 C0.065,6.506 -0.060,6.823 0.031,7.118 C0.122,7.415 0.405,7.618 0.727,7.618 Z"/>
</svg>